<svg version="1.1" id="Layer_1" xmlns="http://www.w3.org/2000/svg" xmlns:xlink="http://www.w3.org/1999/xlink" x="0px" y="0px"
	 width="100%" viewBox="0 0 672 560" enable-background="new 0 0 672 560" xml:space="preserve">
<path fill="#000000" opacity="1.000000" stroke="none" 
	d="
M413.021484,77.942474 
	C422.397369,74.597870 430.873169,70.464996 437.830475,63.681694 
	C439.040222,62.502216 440.434784,61.373375 442.257782,62.091438 
	C444.331940,62.908394 444.443481,64.860542 444.425629,66.728745 
	C443.993866,111.860962 425.900726,147.413925 385.333313,168.580719 
	C352.896606,185.505157 319.972229,182.981766 288.831268,163.639145 
	C261.043610,146.379395 245.266388,120.792419 239.226410,88.995911 
	C237.832153,81.656158 237.400421,74.135857 237.684479,66.620964 
	C237.756744,64.709122 238.024948,62.874168 240.065979,62.086452 
	C241.937637,61.364094 243.267014,62.546955 244.434647,63.757954 
	C251.001678,70.568886 259.533813,74.062401 268.076447,77.295334 
	C282.069183,82.590851 296.645782,86.334412 310.074280,93.143158 
	C310.604980,93.412231 311.318756,93.320236 312.570557,93.472092 
	C312.960602,88.679504 313.117035,84.085907 313.746124,79.557976 
	C315.278442,68.528542 318.472656,58.187355 326.083679,49.565132 
	C335.157135,39.286182 347.870514,39.090530 356.758179,49.455482 
	C364.767334,58.795872 368.307404,69.927025 369.197540,81.986900 
	C369.487823,85.919838 369.243164,89.892258 369.243164,95.237015 
	C383.767670,87.639069 398.481079,83.581909 413.021484,77.942474 
M309.497833,141.150620 
	C283.066467,129.024231 263.690399,109.051926 247.703156,84.954948 
	C242.172226,105.670731 274.300079,149.590591 303.600067,163.376022 
	C346.692993,183.650925 392.322083,165.983124 416.029724,132.563217 
	C403.466675,137.530106 395.972412,138.697067 386.048401,137.598282 
	C366.504425,135.434372 349.312256,127.443916 333.178375,116.666985 
	C323.355408,110.105530 313.873383,103.012619 303.039215,98.038010 
	C288.469025,91.347946 272.815918,87.656158 258.053589,81.517387 
	C257.546234,81.306412 256.834686,81.586525 255.227112,81.720100 
	C277.426880,116.628334 307.919495,139.057022 346.952148,150.440155 
	C333.785278,150.690689 322.034851,145.909103 309.497833,141.150620 
M405.958099,88.576591 
	C385.754730,94.661400 366.958710,103.419235 350.365417,117.394638 
	C351.687805,118.434540 352.502777,119.260391 353.473907,119.810654 
	C364.049377,125.802902 375.468109,129.524414 387.494629,130.573364 
	C406.619965,132.241440 425.475525,123.462967 431.857513,101.413147 
	C433.758728,94.844421 435.469025,88.261513 436.499207,81.515938 
	C436.805420,79.510986 437.124817,77.351318 436.042480,75.021133 
	C426.772308,81.208626 416.635529,84.541473 405.958099,88.576591 
z"/>
<path fill="#000000" opacity="1.000000" stroke="none" 
	d="
M328.442932,373.933075 
	C331.067291,361.437256 330.873993,349.116882 330.851440,336.803986 
	C330.806610,312.330078 330.699280,287.855621 330.824738,263.382446 
	C330.867432,255.047638 329.659363,246.872177 328.318298,239.058624 
	C329.887390,237.328323 331.475159,237.739944 332.916077,237.738846 
	C349.065552,237.726456 365.221436,237.474365 381.362640,237.847961 
	C397.356110,238.218109 412.789673,241.273361 426.431305,250.323212 
	C443.525238,261.663300 451.667175,278.212433 453.195862,298.164459 
	C454.386810,313.708405 452.147614,328.740723 443.892761,342.381805 
	C432.018646,362.003723 413.794403,371.513336 391.722992,374.165009 
	C371.674530,376.573639 351.482513,374.908356 331.357300,375.251587 
	C330.354767,375.268677 329.353729,375.152313 328.442932,373.933075 
M355.263153,277.499969 
	C355.279388,303.960571 355.264465,330.421234 355.334503,356.881683 
	C355.351349,363.243408 356.569183,364.532959 362.936157,364.659637 
	C371.405273,364.828156 379.901367,365.321259 388.316193,363.730042 
	C404.205597,360.725464 415.629272,352.027496 421.852264,337.007874 
	C428.015594,322.132263 428.615570,306.529999 426.443726,290.871796 
	C424.027893,273.454895 416.644409,259.107452 399.175690,252.141159 
	C386.304993,247.008530 372.921204,246.786240 359.391571,248.358383 
	C356.328400,248.714325 355.240082,250.585709 355.264771,253.534683 
	C355.328888,261.189240 355.271820,268.844788 355.263153,277.499969 
z"/>
<path fill="#000000" opacity="1.000000" stroke="none" 
	d="
M505.345154,306.760620 
	C505.379242,290.097870 509.104126,275.029877 519.145081,261.873932 
	C531.197021,246.083084 547.585022,238.151260 566.847534,235.787018 
	C580.938599,234.057526 594.778076,235.497223 607.867371,241.453583 
	C628.836731,250.995804 641.517395,267.394165 645.726318,289.785797 
	C650.658447,316.024811 645.669434,339.982910 625.687073,359.056549 
	C609.989502,374.040344 590.537842,379.103516 569.411926,377.149567 
	C542.669434,374.676086 522.633484,361.749268 511.241455,336.862640 
	C506.952271,327.492676 505.332245,317.484009 505.345154,306.760620 
M543.424561,350.063599 
	C558.943787,373.269501 597.438843,373.449799 611.602966,346.856628 
	C624.642700,322.374664 624.300049,296.839813 614.547058,271.593170 
	C608.083374,254.861313 594.617554,245.766663 576.602417,245.599838 
	C558.818298,245.435165 546.041199,254.256912 538.404785,270.472382 
	C531.897949,284.289307 530.437927,298.946381 531.542114,313.837280 
	C532.482544,326.520477 535.455811,338.799774 543.424561,350.063599 
z"/>
<path fill="#000000" opacity="1.000000" stroke="none" 
	d="
M132.025543,357.945862 
	C107.138893,327.398102 82.470482,297.131531 57.802074,266.864990 
	C57.393574,267.032318 56.985073,267.199615 56.576572,267.366943 
	C57.803738,303.030426 55.214291,338.768219 59.559700,375.168427 
	C54.392208,375.168427 49.464561,375.224121 44.539349,375.138947 
	C42.754395,375.108093 42.434582,373.787628 42.704842,372.288879 
	C47.291126,346.855835 45.158695,321.163818 45.616482,295.574982 
	C45.810116,284.751556 45.285053,273.908356 45.705345,263.098206 
	C46.011948,255.212051 43.847675,248.777298 37.964096,243.485626 
	C36.581207,242.241867 34.782982,241.000946 34.696602,238.340897 
	C39.230465,237.093033 43.923046,238.484238 48.365105,237.684113 
	C60.743484,235.454422 68.208534,241.123077 75.632683,250.740829 
	C97.788643,279.443207 121.069160,307.277496 144.678421,336.398102 
	C144.814926,333.390594 144.980072,331.498749 144.974548,329.607422 
	C144.907425,306.622040 144.768433,283.636810 144.759811,260.651459 
	C144.757416,254.299637 144.197678,248.005280 143.283798,241.749390 
	C142.855209,238.815689 143.817001,237.933167 146.625793,237.733826 
	C159.948166,236.788300 159.687775,236.697510 158.023026,249.533981 
	C156.998596,257.433044 156.504684,265.450104 156.458176,273.418152 
	C156.270523,305.565704 156.375229,337.714935 156.270782,369.863190 
	C156.263947,371.965637 157.756622,375.293243 154.710892,375.940826 
	C151.150360,376.697815 147.064362,377.438843 144.178986,373.608368 
	C140.274796,368.425354 136.228897,363.349152 132.025543,357.945862 
z"/>
<path fill="#000000" opacity="1.000000" stroke="none" 
	d="
M230.668747,282.999939 
	C230.754074,267.884460 230.906738,253.266205 228.089172,237.770645 
	C235.401260,237.770645 241.974533,237.785645 248.547699,237.767014 
	C257.549683,237.741470 257.561859,237.732483 256.186340,246.298065 
	C254.971191,253.865173 254.311050,261.466125 254.333130,269.141296 
	C254.400177,292.445770 254.258438,315.751495 254.453751,339.054626 
	C254.542847,349.684753 254.610825,360.361145 257.126282,370.811615 
	C257.649994,372.987396 258.245728,375.320770 254.653107,375.285858 
	C246.498398,375.206573 238.343399,375.149963 230.189362,375.027252 
	C229.601959,375.018402 229.021484,374.549042 228.453781,374.300781 
	C232.450790,343.989380 229.991241,313.707336 230.668747,282.999939 
z"/>
<path fill="#000000" opacity="1.000000" stroke="none" 
	d="
M438.223236,454.018860 
	C438.856659,465.570526 439.672028,476.631348 441.751587,488.007019 
	C436.514313,488.446259 431.801941,488.633484 426.770630,487.867218 
	C427.072754,470.329590 425.089417,453.184937 423.111450,435.752960 
	C421.476532,439.796844 419.830902,443.836426 418.208649,447.885376 
	C413.253998,460.251801 408.294037,472.616119 403.374237,484.996429 
	C402.604797,486.932556 401.848297,488.778870 399.342743,488.761810 
	C396.812408,488.744537 396.093414,486.719330 395.314758,484.895691 
	C389.169403,470.503662 383.058197,456.097046 376.937073,441.694641 
	C375.965973,439.409729 374.998016,437.123444 373.004730,434.844513 
	C372.467285,441.291168 371.496796,447.737488 371.491455,454.184601 
	C371.482880,464.496552 369.214691,474.749298 370.749512,485.084045 
	C371.062378,487.190704 370.201416,488.304596 368.077728,488.290100 
	C365.946503,488.275543 363.758911,488.746033 361.457367,487.641327 
	C363.391663,463.832397 366.694763,440.046783 365.769165,415.484711 
	C369.330139,414.185394 373.626129,414.815277 377.839447,415.128754 
	C380.023438,415.291260 380.363892,417.559753 381.052155,419.207947 
	C387.146088,433.801208 393.201324,448.410583 399.298706,463.002411 
	C399.990143,464.657135 400.870880,466.232758 402.101715,468.735382 
	C406.949249,456.595093 411.473785,445.225922 416.030121,433.869507 
	C418.138367,428.614838 420.251801,423.360809 422.472443,418.153198 
	C423.782837,415.080170 434.641602,413.355164 436.595825,415.868896 
	C436.957886,416.334625 437.143219,417.147034 437.040009,417.734406 
	C434.927765,429.757690 437.740417,441.613373 438.223236,454.018860 
z"/>
<path fill="#000000" opacity="1.000000" stroke="none" 
	d="
M255.598938,444.830658 
	C258.597473,425.498474 273.937439,413.383545 294.513123,413.697327 
	C313.686035,413.989746 327.967499,426.761444 330.432892,445.819885 
	C333.123413,466.618958 322.344879,483.937836 303.823303,488.575989 
	C274.882843,495.823212 250.560989,473.998840 255.598938,444.830658 
M297.752014,483.570129 
	C304.438873,481.843079 309.473572,477.882233 312.364807,471.690277 
	C318.399445,458.766235 318.510101,445.538422 312.735260,432.565002 
	C309.140198,424.488525 302.338654,419.805206 293.487610,419.584351 
	C284.602722,419.362610 277.886169,423.885254 273.706848,431.726654 
	C267.521301,443.332123 267.687958,455.432678 272.000702,467.485168 
	C276.300049,479.500122 284.194794,484.382385 297.752014,483.570129 
z"/>
<path fill="#000000" opacity="1.000000" stroke="none" 
	d="
M174.215027,428.115356 
	C174.191437,433.095062 174.301773,437.597565 174.106857,442.086823 
	C173.961090,445.443939 175.108734,446.958344 178.649109,446.899872 
	C187.140762,446.759674 195.638504,446.744690 204.129349,446.908691 
	C207.949554,446.982483 209.049515,445.276001 208.893173,441.754578 
	C208.568604,434.444916 209.373489,427.086548 208.070190,419.820129 
	C207.390396,416.030060 208.916565,414.727600 212.631516,414.809448 
	C225.170410,415.085632 222.408264,413.714447 221.910904,424.684540 
	C221.029556,444.123505 220.428665,463.598053 222.449036,483.026489 
	C222.602188,484.499390 223.206985,485.947296 222.525757,487.737732 
	C218.642761,489.010956 214.469955,488.129211 210.379547,488.320862 
	C208.029633,488.430969 207.647736,486.863586 207.986481,484.964355 
	C209.579178,476.034515 208.464874,467.018433 208.893723,458.054260 
	C209.058945,454.600525 207.726730,453.285095 204.267303,453.345245 
	C195.775726,453.492950 187.278244,453.505341 178.786850,453.358063 
	C175.344330,453.298340 173.957153,454.555939 174.122345,458.023010 
	C174.588242,467.802185 173.362961,477.647644 175.581131,487.704681 
	C171.145142,488.867249 166.851898,488.227234 162.617065,488.256165 
	C160.683670,488.269379 160.281754,487.067749 160.372040,485.223053 
	C161.462631,462.938110 161.946793,440.646210 160.461426,418.360077 
	C160.302048,415.968597 161.030685,414.886200 163.379395,414.883820 
	C167.168777,414.879944 170.958160,414.882751 175.138397,414.882751 
	C174.803467,419.521729 174.510666,423.577087 174.215027,428.115356 
z"/>
<path fill="#000000" opacity="1.000000" stroke="none" 
	d="
M492.556030,481.797546 
	C502.813324,482.280670 512.615356,482.577850 521.972229,478.920044 
	C524.507751,485.511414 522.752441,488.336670 516.366821,488.341339 
	C504.203369,488.350250 492.039856,488.344879 479.876526,488.299774 
	C478.262360,488.293793 476.538757,488.727966 475.082458,487.625305 
	C476.498932,468.158844 475.548981,448.718872 475.751190,429.292664 
	C475.782288,426.301300 476.127686,423.119080 475.267914,420.354767 
	C473.690399,415.282776 475.931488,414.749481 480.100342,414.819061 
	C491.094543,415.002594 502.093536,414.893494 513.090637,414.906799 
	C520.084045,414.915253 520.941040,416.019135 519.487732,424.019775 
	C512.014526,421.716980 504.347565,421.045776 496.565979,421.265472 
	C489.137512,421.475159 489.133972,421.321259 489.119965,428.820648 
	C489.111847,433.152679 489.278076,437.494568 489.039001,441.813904 
	C488.816956,445.824768 490.545288,447.151123 494.358551,446.914459 
	C498.511017,446.656738 502.694977,446.906525 506.847595,446.650116 
	C513.677734,446.228455 514.628235,447.499512 512.266479,454.514740 
	C505.993927,454.133942 499.703857,453.777527 493.417908,453.358978 
	C490.556763,453.168488 489.020111,454.186768 489.069427,457.286499 
	C489.178040,464.116119 489.160675,470.947754 489.204865,477.778473 
	C489.217865,479.790405 489.800201,481.409729 492.556030,481.797546 
z"/>
</svg>